<svg width="100%" height= "100%" xmlns="http://www.w3.org/2000/svg">

 <g>
  <title>background</title>
  <rect fill="none" id="canvas_background" height="402" width="582" y="-1" x="-1"/>
 </g>
 <g>
  <title>Layer 1</title>
  <path id="svg_3" stroke-width="6" stroke-miterlimit="10" stroke="#ffffff" fill="none" d="m165.16,170c11.885,-7.672 19.749,-21.011 19.749,-36.223c0,-23.799 -19.263,-43.082 -43.044,-43.082c-1.09,-22.931 -19.979,-41.171 -43.12,-41.171c-23.151,0 -42.06,18.154 -43.12,41.038c-0.592,-0.029 -1.185,-0.039 -1.787,-0.039c-23.84,0 -43.168,19.33 -43.168,43.167c0,15.24 7.901,28.637 19.826,36.309"/>
  <line id="svg_4" y2="170" y1="170" x2="30" x1="165" stroke-width="6" stroke-miterlimit="10" stroke-linecap="round" stroke="#ffffff" fill="none"/>
  <path id="svg_5" stroke-width="6" stroke-miterlimit="10" stroke-linecap="round" stroke="#ffffff" fill="none" d="m175.17,106.471c9.609,-7.451 15.801,-19.111 15.801,-32.221c0,-22.51 -18.24,-40.75 -40.75,-40.75c-14.671,0 -27.541,7.76 -34.721,19.4"/>
 </g>
</svg>
