<svg width="100%" height= "100%" xmlns="http://www.w3.org/2000/svg">

 <g>
  <title>background</title>
  <rect fill="none" id="canvas_background" height="402" width="582" y="-1" x="-1"/>
 </g>
 <g>
  <title>Layer 1</title>
  <path id="svg_4" stroke-width="6" stroke-miterlimit="10" stroke="#ffffff" fill="none" d="m166.16,170c11.885,-7.672 19.749,-21.011 19.749,-36.223c0,-23.799 -19.263,-43.082 -43.044,-43.082c-1.09,-22.931 -19.979,-41.171 -43.12,-41.171c-23.151,0 -42.06,18.154 -43.12,41.038c-0.592,-0.029 -1.185,-0.039 -1.787,-0.039c-23.84,0 -43.168,19.33 -43.168,43.167c0,15.24 7.901,28.637 19.826,36.309"/>
  <line id="svg_5" y2="170" y1="170" x2="31" x1="166" stroke-width="6" stroke-miterlimit="10" stroke-linecap="round" stroke="#ffffff" fill="none"/>
  <path id="svg_6" stroke-width="6" stroke-miterlimit="10" stroke-linecap="round" stroke="#ffffff" fill="none" d="m116.5,52.9c7.18,-11.64 20.05,-19.4 34.72,-19.4c5.36,0 10.471,1.03 15.15,2.91"/>
  <path id="svg_7" stroke-width="6" stroke-miterlimit="10" stroke-linecap="round" stroke="#ffffff" fill="none" d="m176.17,106.471c6.41,-4.971 11.3,-11.811 13.84,-19.711"/>
  <path id="svg_8" stroke-width="6" stroke-miterlimit="10" stroke-linecap="round" stroke="#ffffff" fill="none" d="m166.37,36.41c-5.8,5.32 -9.43,12.97 -9.43,21.47c0,16.1 13.05,29.15 29.159,29.15c1.33,0 2.631,-0.09 3.91,-0.27"/>
 </g>
</svg>
