<svg width="100%" height= "100%" xmlns="http://www.w3.org/2000/svg">

 <g>
  <title>background</title>
  <rect fill="none" id="canvas_background" height="402" width="582" y="-1" x="-1"/>
 </g>
 <g>
  <title>Layer 1</title>
  <path id="svg_4" stroke-width="6" stroke-miterlimit="10" stroke="#ffffff" fill="none" d="m49.86,124.63c-9.141,-5.87 -15.19,-16.13 -15.19,-27.81c0,-18.26 14.811,-33.07 33.07,-33.07c0.46,0 0.92,0.01 1.37,0.029c0.81,-17.529 15.3,-31.439 33.03,-31.439c10.4,0 19.67,4.811 25.73,12.33"/>
  <path id="svg_5" stroke-width="6" stroke-miterlimit="10" stroke="#ffffff" fill="none" d="m159.24,74.32c5.529,5.9 8.91,13.84 8.91,22.57c0,11.649 -6.03,21.869 -15.131,27.739"/>
  <line id="svg_6" y2="124" y1="124" x2="49" x1="153" stroke-width="6" stroke-miterlimit="10" stroke-linecap="round" stroke="#ffffff" fill="none"/>
  <path id="svg_8" stroke-width="6" stroke-miterlimit="10" stroke-linecap="round" stroke="#ffffff" fill="none" d="m127.87,44.67c4.28,5.301 6.96,11.95 7.3,19.21c9.5,0 18.061,4.011 24.07,10.44"/>
  <line id="svg_9" y2="171" y1="134" x2="116" x1="116" stroke-width="6" stroke-miterlimit="10" stroke-linecap="round" stroke="#ffffff" fill="none"/>
  <line id="svg_10" y2="157" y1="134" x2="137" x1="137" stroke-width="6" stroke-miterlimit="10" stroke-linecap="round" stroke="#ffffff" fill="none"/>
  <line id="svg_11" y2="171" y1="134" x2="71" x1="71" stroke-width="6" stroke-miterlimit="10" stroke-linecap="round" stroke="#ffffff" fill="none"/>
  <line id="svg_12" y2="157" y1="134" x2="92" x1="92" stroke-width="6" stroke-miterlimit="10" stroke-linecap="round" stroke="#ffffff" fill="none"/>
 </g>
</svg>
