<svg width="100%" height= "100%"xmlns="http://www.w3.org/2000/svg">

 <g>
  <title>background</title>
  <rect fill="none" id="canvas_background" height="402" width="582" y="-1" x="-1"/>
 </g>
 <g>
  <title>Layer 1</title>
  <path id="svg_3" stroke-width="6" stroke-miterlimit="10" stroke="#ffffff" fill="none" d="m47.86,127.63c-9.141,-5.87 -15.19,-16.13 -15.19,-27.81c0,-18.26 14.811,-33.07 33.07,-33.07c0.46,0 0.92,0.01 1.37,0.03c0.81,-17.53 15.3,-31.44 33.029,-31.44c10.4,0 19.67,4.81 25.73,12.33"/>
  <path id="svg_4" stroke-width="6" stroke-miterlimit="10" stroke="#ffffff" fill="none" d="m157.24,77.32c5.529,5.9 8.91,13.84 8.91,22.57c0,11.65 -6.03,21.87 -15.131,27.74"/>
  <line id="svg_5" y2="127" y1="127" x2="47" x1="151" stroke-width="6" stroke-miterlimit="10" stroke-linecap="round" stroke="#ffffff" fill="none"/>
  <path id="svg_7" stroke-width="6" stroke-miterlimit="10" stroke-linecap="round" stroke="#ffffff" fill="none" d="m125.87,47.67c4.28,5.3 6.96,11.95 7.3,19.21c9.5,0 18.061,4.01 24.07,10.44"/>
  <path id="svg_8" stroke-width="6" stroke-miterlimit="10" stroke-linecap="round" stroke="#ffffff" fill="none" d="m157.24,77.32c5.689,-1.64 10.54,-5.23 13.779,-10.01"/>
  <path id="svg_9" stroke-width="6" stroke-miterlimit="10" stroke-linecap="round" stroke="#ffffff" fill="none" d="m125.87,47.67c2.53,-11.15 12.5,-19.47 24.42,-19.47c5.04,0 9.729,1.49 13.66,4.06"/>
  <path id="svg_10" stroke-width="6" stroke-miterlimit="10" stroke-linecap="round" stroke="#ffffff" fill="none" d="m163.95,32.255c-8.132,1.675 -14.247,8.874 -14.247,17.506c0,9.875 8.007,17.876 17.877,17.876c1.181,0 2.327,-0.117 3.443,-0.332"/>
  <circle id="svg_12" stroke-width="2" stroke-miterlimit="10" stroke-linecap="round" stroke="#ffffff" r="3.663" fill="none" cy="141.619" cx="58.643"/>
  <circle id="svg_13" stroke-width="2" stroke-miterlimit="10" stroke-linecap="round" stroke="#ffffff" r="3.663" fill="none" cy="141.619" cx="99.643"/>
  <circle id="svg_14" stroke-width="2" stroke-miterlimit="10" stroke-linecap="round" stroke="#ffffff" r="3.663" fill="none" cy="141.619" cx="140.643"/>
  <circle id="svg_16" stroke-width="2" stroke-miterlimit="10" stroke-linecap="round" stroke="#ffffff" r="3.663" fill="none" cy="173.619" cx="58.643"/>
  <circle id="svg_17" stroke-width="2" stroke-miterlimit="10" stroke-linecap="round" stroke="#ffffff" r="3.663" fill="none" cy="173.619" cx="99.643"/>
  <circle id="svg_18" stroke-width="2" stroke-miterlimit="10" stroke-linecap="round" stroke="#ffffff" r="3.663" fill="none" cy="173.619" cx="140.643"/>
  <circle id="svg_20" stroke-width="2" stroke-miterlimit="10" stroke-linecap="round" stroke="#ffffff" r="3.663" fill="none" cy="157.619" cx="78.643"/>
  <circle id="svg_21" stroke-width="2" stroke-miterlimit="10" stroke-linecap="round" stroke="#ffffff" r="3.663" fill="none" cy="157.619" cx="119.643"/>
 </g>
</svg>
