<svg width="100%" height= "100%" xmlns="http://www.w3.org/2000/svg">

 <g>
  <title>background</title>
  <rect fill="none" id="canvas_background" height="402" width="582" y="-1" x="-1"/>
 </g>
 <g>
  <title>Layer 1</title>
  <path id="svg_5" stroke-width="6" stroke-miterlimit="10" stroke="#ffffff" fill="none" d="m46.86,118.63c-9.141,-5.87 -15.19,-16.13 -15.19,-27.81c0,-18.26 14.811,-33.07 33.07,-33.07c0.46,0 0.92,0.01 1.37,0.029c0.81,-17.529 15.3,-31.439 33.03,-31.439c10.4,0 19.67,4.811 25.73,12.33"/>
  <path id="svg_6" stroke-width="6" stroke-miterlimit="10" stroke="#ffffff" fill="none" d="m156.24,68.32c5.529,5.9 8.91,13.84 8.91,22.57c0,11.649 -6.03,21.869 -15.131,27.739"/>
  <line id="svg_7" y2="118" y1="118" x2="46" x1="150" stroke-width="6" stroke-miterlimit="10" stroke-linecap="round" stroke="#ffffff" fill="none"/>
  <path id="svg_9" stroke-width="6" stroke-miterlimit="10" stroke-linecap="round" stroke="#ffffff" fill="none" d="m124.87,38.67c4.28,5.301 6.96,11.95 7.3,19.21c9.5,0 18.061,4.011 24.07,10.44"/>
  <path id="svg_10" stroke-width="6" stroke-miterlimit="10" stroke-linecap="round" stroke="#ffffff" fill="none" d="m156.24,68.32c5.689,-1.641 10.54,-5.23 13.779,-10.01"/>
  <path id="svg_11" stroke-width="6" stroke-miterlimit="10" stroke-linecap="round" stroke="#ffffff" fill="none" d="m124.87,38.67c2.53,-11.15 12.5,-19.47 24.42,-19.47c5.04,0 9.729,1.489 13.66,4.06"/>
  <path id="svg_12" stroke-width="6" stroke-miterlimit="10" stroke-linecap="round" stroke="#ffffff" fill="none" d="m162.95,23.256c-8.132,1.674 -14.247,8.873 -14.247,17.506c0,9.875 8.007,17.876 17.877,17.876c1.181,0 2.327,-0.116 3.443,-0.332"/>
  <polyline id="svg_14" stroke-width="6" stroke-miterlimit="10" stroke-linecap="round" stroke="#ffffff" points="83.194,125.332     72.508,158.052 89.282,150.479 80.895,183.999   " fill="none"/>
  <polyline id="svg_15" stroke-width="6" stroke-miterlimit="10" stroke-linecap="round" stroke="#ffffff" points="117.791,125.332     109.508,150.691 122.509,144.822 116.008,170.802   " fill="none"/>
 </g>
</svg>
