<svg width="100%" height= "100%" xmlns="http://www.w3.org/2000/svg">

 <g>
  <title>background</title>
  <rect fill="none" id="canvas_background" height="402" width="582" y="-1" x="-1"/>
 </g>
 <g>
  <title>Layer 1</title>
  <path id="svg_6" stroke-width="6" stroke-miterlimit="10" stroke="#ffffff" fill="none" d="m44.86,118.63c-9.141,-5.87 -15.19,-16.13 -15.19,-27.81c0,-18.26 14.811,-33.07 33.07,-33.07c0.46,0 0.92,0.01 1.37,0.029c0.81,-17.529 15.3,-31.439 33.03,-31.439c10.4,0 19.67,4.811 25.73,12.33"/>
  <path id="svg_7" stroke-width="6" stroke-miterlimit="10" stroke="#ffffff" fill="none" d="m154.24,68.32c5.529,5.9 8.91,13.84 8.91,22.57c0,11.649 -6.03,21.869 -15.131,27.739"/>
  <line id="svg_8" y2="118" y1="118" x2="44" x1="148" stroke-width="6" stroke-miterlimit="10" stroke-linecap="round" stroke="#ffffff" fill="none"/>
  <path id="svg_10" stroke-width="6" stroke-miterlimit="10" stroke-linecap="round" stroke="#ffffff" fill="none" d="m122.87,38.67c4.28,5.301 6.96,11.95 7.3,19.21c9.5,0 18.061,4.011 24.07,10.44"/>
  <path id="svg_11" stroke-width="6" stroke-miterlimit="10" stroke="#ffffff" fill="none" d="m156.49,71.01c9.4,-4.31 15.93,-13.8 15.93,-24.81c0,-15.07 -12.22,-27.29 -27.29,-27.29c-11.29,0 -20.979,6.859 -25.13,16.64"/>
  <polyline id="svg_13" stroke-width="6" stroke-miterlimit="10" stroke-linecap="round" stroke="#ffffff" points="81.194,125.332     70.507,158.052 87.282,150.479 78.895,183.999   " fill="none"/>
  <polyline id="svg_14" stroke-width="6" stroke-miterlimit="10" stroke-linecap="round" stroke="#ffffff" points="115.791,125.332     107.508,150.691 120.509,144.822 114.008,170.802   " fill="none"/>
 </g>
</svg>
