<svg width="100%" height= "100%" xmlns="http://www.w3.org/2000/svg">

 <g>
  <title>background</title>
  <rect fill="none" id="canvas_background" height="402" width="582" y="-1" x="-1"/>
 </g>
 <g>
  <title>Layer 1</title>
  <path id="svg_5" stroke-width="6" stroke-miterlimit="10" stroke="#ffffff" fill="none" d="m49.86,115.63c-9.141,-5.87 -15.19,-16.13 -15.19,-27.81c0,-18.26 14.811,-33.07 33.07,-33.07c0.46,0 0.92,0.01 1.37,0.029c0.81,-17.529 15.3,-31.439 33.03,-31.439c10.4,0 19.67,4.811 25.73,12.33"/>
  <path id="svg_6" stroke-width="6" stroke-miterlimit="10" stroke="#ffffff" fill="none" d="m159.24,65.32c5.529,5.9 8.91,13.84 8.91,22.57c0,11.649 -6.03,21.869 -15.131,27.739"/>
  <line id="svg_7" y2="115" y1="115" x2="49" x1="153" stroke-width="6" stroke-miterlimit="10" stroke-linecap="round" stroke="#ffffff" fill="none"/>
  <path id="svg_9" stroke-width="6" stroke-miterlimit="10" stroke-linecap="round" stroke="#ffffff" fill="none" d="m127.87,35.67c4.28,5.301 6.96,11.95 7.3,19.21c9.5,0 18.061,4.011 24.07,10.44"/>
  <polyline id="svg_10" stroke-width="6" stroke-miterlimit="10" stroke-linecap="round" stroke="#ffffff" points="87.194,122.332    76.507,155.052 93.282,147.479 84.895,180.999  " fill="none"/>
  <polyline id="svg_11" stroke-width="6" stroke-miterlimit="10" stroke-linecap="round" stroke="#ffffff" points="121.791,122.332    113.508,147.691 126.509,141.822 120.008,167.802  " fill="none"/>
 </g>
</svg>
