<svg width="100%" height= "100%" xmlns="http://www.w3.org/2000/svg">

 <g>
  <title>background</title>
  <rect fill="none" id="canvas_background" height="402" width="582" y="-1" x="-1"/>
 </g>
 <g>
  <title>Layer 1</title>
  <path id="svg_2" stroke-width="6" stroke-miterlimit="10" stroke-linecap="round" stroke="#ffffff" fill="none" d="m6.277,80.458c72.074,-47.146 123.29,-14.44 160.842,-0.062c10.586,4.053 26.98,1.328 26.904,-12.508c-0.044,-8.114 -1.761,-13.054 -3.846,-16.834"/>
  <path id="svg_3" stroke-width="6" stroke-miterlimit="10" stroke-linecap="round" stroke="#ffffff" fill="none" d="m6.277,120.101c72.074,-47.146 123.29,-14.44 160.842,-0.062c10.586,4.053 26.98,1.328 26.904,-12.508c-0.044,-8.114 -1.761,-13.054 -3.846,-16.834"/>
  <path id="svg_4" stroke-width="6" stroke-miterlimit="10" stroke-linecap="round" stroke="#ffffff" fill="none" d="m6.277,159.744c72.074,-47.146 123.29,-14.441 160.842,-0.063c10.586,4.053 26.98,1.328 26.904,-12.508c-0.044,-8.113 -1.761,-13.055 -3.846,-16.834"/>
 </g>
</svg>
